<?xml version="1.0" encoding="utf-8"?>
<!-- Generator: Adobe Illustrator 16.0.0, SVG Export Plug-In . SVG Version: 6.00 Build 0)  -->
<!DOCTYPE svg PUBLIC "-//W3C//DTD SVG 1.1//EN" "http://www.w3.org/Graphics/SVG/1.1/DTD/svg11.dtd">
<svg version="1.1" id="Layer_1" xmlns="http://www.w3.org/2000/svg" xmlns:xlink="http://www.w3.org/1999/xlink" x="0px" y="0px"
	 width="200px" height="200px" viewBox="-1.354 -21.083 200 200" enable-background="new -1.354 -21.083 200 200"
	 xml:space="preserve">
<circle fill="#FFFFFF" stroke="#000000" stroke-width="20" stroke-miterlimit="10" cx="98.646" cy="79.417" r="79.5"/>
<path fill="#990000" d="M145.134,75.802l-1.062-3.109c-0.588-1.721-2.46-3.109-4.178-3.109h-3.859
	c-2.897-8.129-6.44-17.941-7.471-20.24c-1.602-3.574-6.721-5.189-9.534-5.973c0,0-4.702-1.789-20.384-1.789
	c-15.681,0-20.384,1.787-20.384,1.787c-3.295,1.103-7.877,2.66-9.698,6.131c-0.854,1.636-4.452,11.726-7.381,20.082h-3.781
	c-1.717,0-3.588,1.393-4.177,3.111l-1.067,3.109c-0.589,1.721,0.326,3.111,2.045,3.111h3.731c-0.481,1.398-0.774,2.246-0.774,2.246
	c-0.299,0.506-0.514,2.834-0.514,3.459v17.629v1.229v9.48c0,1.816,1.477,3.295,3.294,3.295h12.078c1.82,0,3.294-1.479,3.294-3.295
	v-6.039h46.667v6.039c0,1.816,1.476,3.295,3.294,3.295h12.077c1.819,0,3.295-1.479,3.295-3.295v-9.48v-1.229V84.617
	c0-0.625-0.215-2.953-0.515-3.457c0,0-0.299-0.848-0.791-2.248h3.75C144.808,78.912,145.723,77.521,145.134,75.802z M75.243,93.162
	h-4.992c-4.473,0-8.938-0.602-8.938-3.439v-3.438c0-3.318,1.929-3.439,4.004-3.439c2.03,0,6.05,1.717,8.694,2.902
	c2.884,1.289,6.112,2.367,6.112,4.514C80.124,92.248,79.008,93.162,75.243,93.162z M68.286,70.835
	c2.455-10.201,5.127-15.961,5.717-17.569c0.471-1.167,0.929-4.772,24.645-4.772s24.273,4.113,24.331,4.164
	c0.731,2.186,3.631,8.771,5.95,18.172c0,0-10.016,3.412-30.287,3.412S68.286,70.835,68.286,70.835z M117.165,90.259
	c0-2.152,3.229-3.225,6.111-4.514c2.646-1.182,6.664-2.902,8.693-2.902c2.076,0,4.004,0.121,4.004,3.439v3.438h0.006
	c0,2.842-4.467,3.439-8.938,3.439h-4.998C118.284,93.162,117.165,92.248,117.165,90.259z"/>
</svg>
