<?xml version="1.0" encoding="utf-8"?>
<!-- Generator: Adobe Illustrator 16.0.0, SVG Export Plug-In . SVG Version: 6.00 Build 0)  -->
<!DOCTYPE svg PUBLIC "-//W3C//DTD SVG 1.1//EN" "http://www.w3.org/Graphics/SVG/1.1/DTD/svg11.dtd">
<svg version="1.1" id="Layer_1" xmlns="http://www.w3.org/2000/svg" xmlns:xlink="http://www.w3.org/1999/xlink" x="0px" y="0px"
	 width="1378.125px" height="420px" viewBox="0 0 1378.125 420" enable-background="new 0 0 1378.125 420" xml:space="preserve">
<g>
	<g>
		<path fill="#040305" d="M178.938,189.648c-10.124,0-16.268-6.964-16.852-19.12c-0.236-4.792,0.964-10.056,2.233-15.65
			c0.946-4.197,1.94-8.528,2.414-12.98c0.468-4.467-0.236-5.987-0.698-6.497c-0.854-0.953-3.373-0.953-5.805-0.953h-1.201v-5.923
			h1.201c3.555,0,7.588,0,10.209,2.911c2.044,2.269,2.741,5.797,2.189,11.082c-0.503,4.789-1.528,9.314-2.523,13.683
			c-1.177,5.179-2.293,10.068-2.098,14.034c0.43,8.954,4.113,13.491,10.937,13.491c7.497,0,11.3-4.744,11.3-14.085
			c0-7.728-2.402-13.745-3.998-17.725l-0.625-1.601c-1.655-4.332-1.875-8.222-2.05-14.114c-0.163-5.721-0.097-11.838,1.486-17.882
			c1.596-6.081,4.878-9.044,10.306-13.952l1.31-1.192l3.985,4.386l-1.329,1.198c-5.077,4.594-7.394,6.691-8.541,11.067
			c-1.395,5.313-1.444,10.928-1.292,16.202c0.165,5.75,0.383,8.828,1.657,12.177l0.6,1.504c1.654,4.137,4.416,11.051,4.416,19.92
			C196.164,182.176,189.722,189.648,178.938,189.648z"/>
		<path fill="#040305" d="M186.568,137.209l-0.151-5.926c0,0,4.591-0.118,7.194-0.148c0.055-1.049,0.055-2.69,0.055-4.41v-0.883
			c0-7.087-1.104-8.025-2.379-9.12c-0.467-0.391-0.934-0.801-1.376-1.292l4.355-4.004c0.279,0.304,0.582,0.546,0.868,0.789
			c2.523,2.159,4.458,4.528,4.458,13.62v0.882c0,3.322,0.006,5.157-0.291,6.552c-0.51,2.398-2.159,3.779-4.532,3.779
			C192.853,137.049,186.574,137.209,186.568,137.209z"/>
	</g>
	<path fill="#040305" d="M159.03,201.756c0,1.9-1.541,3.441-3.441,3.441H94.223c-1.9,0-3.441-1.541-3.441-3.441V91.069
		c0-1.9,1.541-3.441,3.441-3.441h61.366c1.9,0,3.441,1.541,3.441,3.441V201.756L159.03,201.756z"/>
	<rect x="96.518" y="99.958" fill="#FFFFFF" width="56.777" height="87.891"/>
	<circle fill="#FFFFFF" cx="124.906" cy="196.594" r="4.874"/>
	<circle cx="124.906" cy="196.594" r="4.093"/>
</g>
<text transform="matrix(1 0 0 1 296.5 324.8496)" font-family="'Designosaur'" font-size="300">Tankuje</text>
<path fill="#990000" d="M138.72,36.27c-60.459,0-109.463,49.002-109.463,109.428c0,60.476,109.463,238.033,109.463,238.033
	s109.465-177.558,109.465-238.033C248.185,85.275,199.19,36.27,138.72,36.27z M138.725,230.377
	c-46.595,0-84.513-37.916-84.513-84.509c0-46.605,37.922-84.513,84.513-84.513c46.601,0,84.515,37.908,84.515,84.513
	C223.239,192.461,185.325,230.377,138.725,230.377z"/>
</svg>
